<?xml version="1.0" encoding="utf-8"?>
<!-- Generator: Adobe Illustrator 18.1.1, SVG Export Plug-In . SVG Version: 6.00 Build 0)  -->
<svg version="1.1" id="Layer_1" xmlns="http://www.w3.org/2000/svg" xmlns:xlink="http://www.w3.org/1999/xlink" x="0px" y="0px"
	 viewBox="0 0 158 49" style="enable-background:new 0 0 158 49;" xml:space="preserve">
<style type="text/css">
	.st0{fill:#FFFFFF;}
</style>
<g>
	<g>
		<path class="st0" d="M64.1,37.5l-0.3,0.6c0,0-0.5-0.3-1.1-0.3c-1,0-1.7,0.9-1.7,2.1c0,1.2,0.7,2.1,1.7,2.1c0.6,0,1-0.3,1.1-0.3
			l0.3,0.7c-0.3,0.2-0.8,0.4-1.4,0.4c-1.4,0-2.5-1.1-2.5-2.8c0-1.7,1.1-2.8,2.6-2.8C63.3,37,63.8,37.2,64.1,37.5z"/>
		<path class="st0" d="M66.6,37.1v4.7h2.3v0.8h-3.1v-5.5H66.6z"/>
		<path class="st0" d="M72.6,37.1l1.6,5.6h-0.9l-0.4-1.4h-1.7l-0.4,1.4h-0.9l1.6-5.6H72.6z M71.3,40.5h1.4L72,37.9h0L71.3,40.5z"/>
		<path class="st0" d="M75.3,42.3l0.3-0.7c0.1,0.1,0.6,0.3,1.3,0.3c0.8,0,1-0.4,1-0.8c0-1.2-2.5-0.7-2.5-2.6c0-1,0.7-1.5,1.7-1.5
			c0.6,0,1.1,0.2,1.5,0.4L78.4,38c0,0-0.6-0.3-1.2-0.3c-0.7,0-1,0.3-1,0.7c0,1.2,2.5,0.7,2.5,2.7c0,1.1-0.8,1.5-1.8,1.5
			C76.3,42.7,75.7,42.5,75.3,42.3z"/>
		<path class="st0" d="M80.1,42.3l0.3-0.7c0.1,0.1,0.6,0.3,1.3,0.3c0.8,0,1-0.4,1-0.8c0-1.2-2.5-0.7-2.5-2.6c0-1,0.7-1.5,1.7-1.5
			c0.6,0,1.1,0.2,1.5,0.4L83.1,38c0,0-0.6-0.3-1.2-0.3c-0.7,0-1,0.3-1,0.7c0,1.2,2.5,0.7,2.5,2.7c0,1.1-0.8,1.5-1.8,1.5
			C81,42.7,80.5,42.5,80.1,42.3z"/>
		<path class="st0" d="M86,37.1v5.5h-0.8v-5.5H86z"/>
		<path class="st0" d="M91.6,37.5l-0.3,0.6c0,0-0.5-0.3-1.1-0.3c-1,0-1.7,0.9-1.7,2.1c0,1.2,0.7,2.1,1.7,2.1c0.6,0,1-0.3,1.1-0.3
			l0.3,0.7c-0.3,0.2-0.8,0.4-1.4,0.4c-1.4,0-2.5-1.1-2.5-2.8c0-1.7,1.1-2.8,2.6-2.8C90.8,37,91.3,37.2,91.6,37.5z"/>
		<path class="st0" d="M97.8,37.1l1.6,5.6h-0.9l-0.4-1.4h-1.7L96,42.6h-0.9l1.6-5.6H97.8z M96.6,40.5h1.4l-0.7-2.5h0L96.6,40.5z"/>
		<path class="st0" d="M101.6,37.1v3.7c0,0.7,0.4,1.2,1,1.2c0.6,0,1-0.5,1-1.2v-3.7h0.8v3.6c0,1.1-0.7,1.9-1.9,1.9
			c-1.2,0-1.9-0.9-1.9-1.9v-3.6H101.6z"/>
		<path class="st0" d="M109.7,37.1v0.7h-1.5v4.8h-0.8v-4.8h-1.5v-0.7H109.7z"/>
		<path class="st0" d="M113.2,37c1.5,0,2.4,1.2,2.4,2.8c0,1.6-0.9,2.8-2.4,2.8c-1.6,0-2.4-1.2-2.4-2.8C110.7,38.2,111.7,37,113.2,37
			z M113.2,41.9c1,0,1.6-0.9,1.6-2.1c0-1.2-0.6-2.1-1.6-2.1c-1,0-1.6,0.9-1.6,2.1C111.6,41.1,112.2,41.9,113.2,41.9z"/>
		<path class="st0" d="M117,42.3l0.3-0.7c0.1,0.1,0.6,0.3,1.3,0.3c0.8,0,1-0.4,1-0.8c0-1.2-2.5-0.7-2.5-2.6c0-1,0.7-1.5,1.7-1.5
			c0.6,0,1.1,0.2,1.5,0.4L120,38c0,0-0.6-0.3-1.2-0.3c-0.7,0-1,0.3-1,0.7c0,1.2,2.5,0.7,2.5,2.7c0,1.1-0.8,1.5-1.8,1.5
			C117.9,42.7,117.3,42.5,117,42.3z"/>
	</g>
	<g>
		<g>
			<path class="st0" d="M151,14v-2.9h-1.1v-0.4h2.6v0.4h-1.1V14H151z"/>
			<path class="st0" d="M153.2,14v-3.3h0.7l0.8,2.4c0.1,0.2,0.1,0.4,0.2,0.5c0-0.1,0.1-0.3,0.2-0.5l0.8-2.3h0.6V14H156v-2.8l-1,2.8
				h-0.4l-1-2.8V14H153.2z"/>
		</g>
		<g>
			<path class="st0" d="M55.8,10.7h6.6c0,0,3.1,14.3,3.3,15.8c0.2-1.4,4-15.8,4-15.8h7.8c0,0,3.2,12.5,3.8,15.7
				c0.2-1.2,3.2-15.7,3.2-15.7h6.6L86,32.1h-9.1c0,0-3.1-13.1-3.4-15.2c-0.2,1.9-3.4,15.2-3.4,15.2H61L55.8,10.7z"/>
			<path class="st0" d="M117.9,10.7v4.8h-16.7V19h15.5v4.9h-15.6v3.4h17v4.9H93.6V10.7H117.9z"/>
			<path class="st0" d="M121.9,10.7h19.7c1.5,0,3.5,0.1,5,1.1c1.5,1.1,1.8,2.9,1.8,3.9c0,2.7-1.5,4.2-4.1,4.8c1.3,0.2,2.8,0.4,4,1.7
				c0.9,1,1.2,2.1,1.2,3.6c0,3-1.7,4.7-3.9,5.6c-1.8,0.7-3.9,0.8-5.6,0.8h-18.2V10.7z M129.6,27.2h9.5c0.8,0,1.3,0,1.6-0.2
				c1-0.4,1.2-1.1,1.2-1.9c0-0.8-0.4-1.4-1-1.5c-0.5-0.2-1-0.2-1.9-0.2h-9.4V27.2z M129.6,18.8h8.9c1.2,0,1.4-0.1,1.6-0.2
				c0.6-0.2,0.9-0.7,0.9-1.5c0-0.6-0.3-1.1-1-1.4c-0.3-0.2-0.8-0.2-1.5-0.2h-9V18.8z"/>
		</g>
	</g>
	<g>
		<g>
			<path class="st0" d="M29.1,23l8.4-0.9c0,0-0.1-0.1-0.1-0.1c-0.8-0.9-1.8-2.3-2.6-3.7c-0.6-1.1-1.1-2.2-1.4-3.2l-5,6.7
				c0.1,0.1,0.1,0.3,0.2,0.4C28.7,22.5,28.9,22.8,29.1,23z"/>
			<path class="st0" d="M26.5,20.6l3.4-7.7c-0.1,0-0.1,0-0.2,0c-1.2,0.3-2.8,0.4-4.4,0.4c-1.2,0-2.5-0.1-3.5-0.4l3.3,7.7
				c0.1,0,0.3,0,0.5,0C25.9,20.6,26.2,20.6,26.5,20.6z"/>
			<path class="st0" d="M23.1,21.6l-5-6.8c0,0.1,0,0.1-0.1,0.2c-0.4,1.2-1.1,2.7-1.9,4c-0.6,1.1-1.4,2.1-2.1,2.9l8.3,1
				c0.1-0.1,0.2-0.2,0.2-0.4C22.9,22.1,23,21.8,23.1,21.6z"/>
			<path class="st0" d="M22.3,25l-8.4,0.9c0,0,0.1,0.1,0.1,0.1c0.8,0.9,1.8,2.2,2.6,3.7c0.6,1.1,1.1,2.2,1.4,3.2l5-6.7
				c-0.1-0.1-0.1-0.3-0.2-0.4C22.6,25.5,22.4,25.2,22.3,25z"/>
			<path class="st0" d="M24.8,27.5l-3.4,7.7c0.1,0,0.1,0,0.2,0c1.2-0.3,2.8-0.4,4.4-0.4c1.2,0,2.5,0.1,3.5,0.4l-3.3-7.7
				c-0.1,0-0.3,0-0.5,0C25.4,27.4,25.1,27.4,24.8,27.5z"/>
			<path class="st0" d="M28.2,26.5l5,6.8c0-0.1,0-0.1,0.1-0.2c0.4-1.2,1.1-2.7,1.9-4c0.6-1.1,1.4-2.1,2.1-2.9l-8.3-1
				c-0.1,0.1-0.2,0.2-0.2,0.4C28.5,25.9,28.3,26.2,28.2,26.5z"/>
		</g>
		<g>
			<path class="st0" d="M41.8,21.4l8.3-0.9c-0.2-0.2-0.4-0.4-0.6-0.6c-1.6-1.8-3.5-4.4-5-7.1c-1.4-2.5-2.6-5.3-3.2-7.6L36.2,12
				c0.1,0.9,0.6,2.5,1.8,4.5C39.6,19.4,41.2,21.1,41.8,21.4z"/>
			<path class="st0" d="M31.5,8.7l3.4-7.6c-0.3,0.1-0.5,0.1-0.8,0.2c-2.4,0.5-5.5,0.8-8.7,0.8c-2.9,0-5.9-0.4-8.2-1.1l3.4,7.9
				c0.9,0.3,2.5,0.7,4.8,0.7C28.6,9.7,30.9,9.1,31.5,8.7z"/>
			<path class="st0" d="M15.3,11.3l-4.9-6.7c-0.1,0.3-0.1,0.5-0.2,0.8c-0.7,2.3-2.1,5.2-3.7,7.9c-1.5,2.5-3.3,4.9-5,6.5l8.5,1
				c0.7-0.6,1.8-1.8,3-3.8C14.7,14.3,15.4,12.1,15.3,11.3z"/>
			<path class="st0" d="M9.5,26.6l-8.3,0.9c0.2,0.2,0.4,0.4,0.6,0.6c1.6,1.8,3.5,4.4,5,7.1c1.4,2.5,2.6,5.3,3.2,7.6l5.1-6.9
				c-0.1-0.9-0.6-2.5-1.8-4.5C11.7,28.6,10.1,27,9.5,26.6z"/>
			<path class="st0" d="M19.9,39.3l-3.4,7.6c0.3-0.1,0.5-0.1,0.8-0.2c2.4-0.5,5.5-0.8,8.7-0.8c2.9,0,5.9,0.4,8.2,1.1l-3.4-7.9
				c-0.9-0.3-2.5-0.7-4.8-0.7C22.7,38.4,20.4,38.9,19.9,39.3z"/>
			<path class="st0" d="M36,36.7l4.9,6.7c0.1-0.3,0.2-0.5,0.2-0.8c0.7-2.3,2.1-5.2,3.7-7.9c1.5-2.5,3.3-4.9,5-6.5l-8.5-1
				c-0.7,0.6-1.8,1.8-3,3.8C36.6,33.8,36,36,36,36.7z"/>
		</g>
	</g>
</g>
</svg>
